<svg xmlns="http://www.w3.org/2000/svg" width="32" height="32.025" viewBox="0 0 32 32.025">
  <path id="Path_1" data-name="Path 1" d="M9.2,33H2a1.075,1.075,0,0,1-1-1V24.7a1,1,0,0,1,1-1H9V32A3.553,3.553,0,0,0,9.2,33ZM23,20V32a1.075,1.075,0,0,1-1,1H12a1.075,1.075,0,0,1-1-1V20a1,1,0,0,1,1-1H22A1,1,0,0,1,23,20Zm10,6v6a1.075,1.075,0,0,1-1,1H24.8a3.553,3.553,0,0,0,.2-1V25h7A1,1,0,0,1,33,26ZM25.1,8l-3.3,3.2.8,4.6a.951.951,0,0,1-.4,1,1.417,1.417,0,0,1-1.1.1L17,14.7l-4.1,2.1a.769.769,0,0,1-1-.1.951.951,0,0,1-.4-1l.8-4.6L8.9,8a1.093,1.093,0,0,1-.2-1,.969.969,0,0,1,.8-.7l4.6-.7,2-4.1a1.034,1.034,0,0,1,1.8,0l2,4.1,4.6.7a.969.969,0,0,1,.8.7A1.093,1.093,0,0,1,25.1,8Z" transform="translate(-1 -0.975)" fill="#78c694"/>
</svg>
