<svg id="Group_1" data-name="Group 1" xmlns="http://www.w3.org/2000/svg" width="1200" height="1200" viewBox="0 0 1200 1200">
  <rect id="Rectangle_2" data-name="Rectangle 2" width="889" height="960" rx="281" transform="translate(105.5 120)" fill="none" stroke="#78c694" stroke-miterlimit="10" stroke-width="70"/>
  <path id="Path_1" data-name="Path 1" d="M943.83,240h101.9a48.762,48.762,0,0,1,48.77,48.78v82.45A48.762,48.762,0,0,1,1045.72,420H967.18m0,90h78.55a48.762,48.762,0,0,1,48.77,48.78v82.45A48.762,48.762,0,0,1,1045.72,690H967.18m0,90h78.55a48.762,48.762,0,0,1,48.77,48.78v82.45A48.762,48.762,0,0,1,1045.72,960H943.83" fill="none" stroke="#78c694" stroke-miterlimit="10" stroke-width="70"/>
  <circle id="Ellipse_1" data-name="Ellipse 1" cx="155" cy="155" r="155" transform="translate(395 290)" fill="#78c694" stroke="#78c694" stroke-miterlimit="10" stroke-width="70"/>
  <path id="Path_2" data-name="Path 2" d="M788.53,798.05a580.5,580.5,0,0,0-44.72-87.44c-92.46-147.48-307.35-147.48-399.8,0a581.528,581.528,0,0,0-44.73,87.44c-26.34,64.05,15.42,137.31,78,137.31H710.57C773.11,935.36,814.87,862.1,788.53,798.05Z" fill="#78c694" stroke="#78c694" stroke-miterlimit="10" stroke-width="70"/>
  <rect id="Rectangle_3" data-name="Rectangle 3" width="1200" height="1200" fill="none"/>
</svg>
