<svg id="Group_1" data-name="Group 1" xmlns="http://www.w3.org/2000/svg" width="1024" height="1024" viewBox="0 0 1024 1024">
  <path id="Path_2" data-name="Path 2" d="M1024,512C1024,229.23,794.77,0,512,0S0,229.23,0,512c0,255.554,187.231,467.37,432,505.778V660H302V512H432V399.2C432,270.88,508.439,200,625.389,200,681.408,200,740,210,740,210V336H675.437C611.835,336,592,375.467,592,415.957V512H734L711.3,660H592v357.778C836.769,979.37,1024,767.554,1024,512Z" fill="#1877f2"/>
  <path id="Path_3" data-name="Path 3" d="M711.3,660,734,512H592V415.957C592,375.467,611.835,336,675.437,336H740V210s-58.592-10-114.611-10C508.439,200,432,270.88,432,399.2V512H302V660H432v357.778a517.4,517.4,0,0,0,160,0V660Z" fill="#fff"/>
</svg>
