<svg id="providers-list" xmlns="http://www.w3.org/2000/svg" width="72" height="72" viewBox="0 0 72 72">
  <g id="linkedin">
    <rect id="Rectangle-2" width="72" height="72" rx="4" fill="#117eb8"/>
    <path id="Shape" d="M13.139,27.848h9.623V58.81H13.139V27.848Zm4.813-15.391a5.579,5.579,0,1,1-5.58,5.579,5.581,5.581,0,0,1,5.58-5.579ZM28.8,27.847h9.23v4.231h.128a10.112,10.112,0,0,1,9.1-5C57,27.078,58.8,33.491,58.8,41.828V58.81H49.188V43.753c0-3.59-.066-8.209-5-8.209-5.007,0-5.776,3.911-5.776,7.95V58.81H28.8V27.848Z" fill="#fff" fill-rule="evenodd"/>
  </g>
</svg>
