<svg xmlns="http://www.w3.org/2000/svg" width="496.001" height="459.984" viewBox="0 0 496.001 459.984">
  <path id="Path_4" data-name="Path 4" d="M491.012,130.229,414.646,154.14c-12.962,36.951-43.507,80.229-67.979,112.079V485.992l150.322-47.068A9.869,9.869,0,0,0,504,429.381V139.772a10,10,0,0,0-12.989-9.543ZM308.4,26.008a96.531,96.531,0,0,1,96.532,96.531c0,42.819-58.027,118.1-88.707,156.531a10,10,0,0,1-15.641-.014C269.049,239.4,211.871,164.3,211.871,122.538A96.531,96.531,0,0,1,308.4,26.008Zm0,45a51.415,51.415,0,1,1-51.415,51.415A51.415,51.415,0,0,1,308.4,71.007Zm-111.6,62.5-15.47-4.844V439.233l149.333,46.758V286.625l-1.936,2.428a26,26,0,0,1-40.667-.037c-28.177-35.429-83.461-106.459-91.26-155.5Zm-31.471-4.844L15.012,175.735A9.869,9.869,0,0,0,8,185.278V474.887a9.72,9.72,0,0,0,4.079,8.059,9.72,9.72,0,0,0,8.909,1.484l144.346-45.2V128.667Z" transform="translate(-8 -26.008)" fill="#78c694" fill-rule="evenodd"/>
</svg>
