<svg xmlns="http://www.w3.org/2000/svg" width="32" height="28.63" viewBox="0 0 32 28.63">
  <path id="Path_3" data-name="Path 3" d="M22,24V18a2,2,0,0,1,2-2h6V12a2,2,0,0,0-2-2H25.7l-.976-5.8a1,1,0,0,0-.412-.652,1.034,1.034,0,0,0-.756-.166L3.818,7.016a1,1,0,0,0-.8,1.18L3.378,10H2a2,2,0,0,0-2,2V30a2,2,0,0,0,2,2H28a2,2,0,0,0,2-2V26H24A2,2,0,0,1,22,24ZM5.178,8.8,22.924,5.534,23.676,10H5.416ZM31,18H24v6h7a1,1,0,0,0,1-1V19A1,1,0,0,0,31,18Zm-4,4a1,1,0,1,1,1-1A1,1,0,0,1,27,22Z" transform="translate(0 -3.37)" fill="#78c694"/>
</svg>
