<svg xmlns="http://www.w3.org/2000/svg" width="16.029" height="16.559" viewBox="0 0 16.029 16.559">
  <g id="Group_1" data-name="Group 1" transform="translate(-0.71 0)">
    <ellipse id="Ellipse_1" data-name="Ellipse 1" cx="7.725" cy="7.985" rx="7.725" ry="7.985" transform="translate(1 0.295)" fill="#78c694" stroke="#fff" stroke-width="0.579"/>
    <path id="Path_3" data-name="Path 3" d="M11.247,8.28a18.671,18.671,0,0,1-.808,5.762,5.642,5.642,0,0,1-.845,1.686,1.178,1.178,0,0,1-.868.542,1.178,1.178,0,0,1-.868-.542,5.643,5.643,0,0,1-.845-1.686A18.671,18.671,0,0,1,6.2,8.28a18.671,18.671,0,0,1,.808-5.762A5.642,5.642,0,0,1,7.857.832,1.178,1.178,0,0,1,8.725.29a1.178,1.178,0,0,1,.868.542,5.641,5.641,0,0,1,.845,1.686A18.671,18.671,0,0,1,11.247,8.28Z" fill="#78c694" stroke="#fff" stroke-width="0.579"/>
    <path id="Path_4" data-name="Path 4" d="M1.327,6.211H16.45M1.738,11.986H15.663" fill="none" stroke="#fff" stroke-width="0.579"/>
  </g>
</svg>
